<mxfile host="app.diagrams.net" modified="2023-06-04T03:57:57.894Z" agent="Mozilla/5.0 (Windows NT 10.0; Win64; x64) AppleWebKit/537.36 (KHTML, like Gecko) Chrome/113.0.0.0 Safari/537.36" version="21.3.7" etag="kX6wnyESiUF4GWHggXsv" type="github">
  <diagram name="Halaman-1" id="TyX4AG2Zbq9T4movrjsJ">
    <mxGraphModel>
      <root>
        <mxCell id="0" />
        <mxCell id="1" parent="0" />
      </root>
    </mxGraphModel>
  </diagram>
</mxfile>
